<svg xmlns="http://www.w3.org/2000/svg"  viewBox="0 0 64 64" width="64px" height="64px"><linearGradient id="Iq3jc0XP~rVl4tfCZy1v6a" x1="33" x2="33" y1="9.5" y2="51.803" gradientUnits="userSpaceOnUse" spreadMethod="reflect"><stop offset="0" stop-color="#6dc7ff"/><stop offset="1" stop-color="#e6abff"/></linearGradient><path fill="url(#Iq3jc0XP~rVl4tfCZy1v6a)" d="M25,51.625V44H14V10h38v25.747L44.441,44H32.423L25,51.625z M16,42h11v4.703L31.579,42h11.981 L50,34.97V12H16V42z"/><linearGradient id="Iq3jc0XP~rVl4tfCZy1v6b" x1="32" x2="32" y1="5.75" y2="58.767" gradientUnits="userSpaceOnUse" spreadMethod="reflect"><stop offset="0" stop-color="#1a6dff"/><stop offset="1" stop-color="#c822ff"/></linearGradient><path fill="url(#Iq3jc0XP~rVl4tfCZy1v6b)" d="M55.001,6H12.057c-0.828,0-1.559,0.498-1.861,1.268l-3.057,7.773 C7.047,15.274,7,15.521,7,15.771V50c0,1.103,0.897,2,2.001,2H19v4c0,1.103,0.897,2,2.001,2h5.353c0.51,0,0.996-0.192,1.371-0.543 L33.522,52h8.933c0.534,0,1.055-0.219,1.43-0.602l12.547-12.813C56.798,38.21,57,37.713,57,37.188V8C57,6.897,56.104,6,55.001,6z M55,37.189L42.455,50h-8.933c-0.51,0-0.996,0.192-1.371,0.543L26.354,56H21v-4c0-1.103-0.896-2-1.999-2H9V15.771L12.057,8H55 V37.189z"/><linearGradient id="Iq3jc0XP~rVl4tfCZy1v6c" x1="41.5" x2="41.5" y1="5.75" y2="58.767" gradientUnits="userSpaceOnUse" spreadMethod="reflect"><stop offset="0" stop-color="#1a6dff"/><stop offset="1" stop-color="#c822ff"/></linearGradient><path fill="url(#Iq3jc0XP~rVl4tfCZy1v6c)" d="M45,19h-7v15h7V19z M43,32h-3V21h3V32z"/><linearGradient id="Iq3jc0XP~rVl4tfCZy1v6d" x1="29.5" x2="29.5" y1="5.75" y2="58.767" gradientUnits="userSpaceOnUse" spreadMethod="reflect"><stop offset="0" stop-color="#1a6dff"/><stop offset="1" stop-color="#c822ff"/></linearGradient><path fill="url(#Iq3jc0XP~rVl4tfCZy1v6d)" d="M33,19h-7v15h7V19z M31,32h-3V21h3V32z"/><linearGradient id="Iq3jc0XP~rVl4tfCZy1v6e" x1="29.5" x2="29.5" y1="20.875" y2="32.679" gradientUnits="userSpaceOnUse" spreadMethod="reflect"><stop offset="0" stop-color="#6dc7ff"/><stop offset="1" stop-color="#e6abff"/></linearGradient><path fill="url(#Iq3jc0XP~rVl4tfCZy1v6e)" d="M28 21H31V32H28z"/><linearGradient id="Iq3jc0XP~rVl4tfCZy1v6f" x1="41.5" x2="41.5" y1="20.875" y2="32.679" gradientUnits="userSpaceOnUse" spreadMethod="reflect"><stop offset="0" stop-color="#6dc7ff"/><stop offset="1" stop-color="#e6abff"/></linearGradient><path fill="url(#Iq3jc0XP~rVl4tfCZy1v6f)" d="M40 21H43V32H40z"/></svg>